{
    "asset" : {
        "generator" : "Khronos glTF Blender I/O v1.3.48",
        "version" : "2.0"
    },
    "scene" : 0,
    "scenes" : [
        {
            "name" : "Scene",
            "nodes" : [
                0
            ]
        }
    ],
    "nodes" : [
        {
            "mesh" : 0,
            "name" : "Cube.001",
            "rotation" : [
                0,
                -0.7098916172981262,
                0,
                0.7043110132217407
            ],
            "translation" : [
                0.044928669929504395,
                6.226437568664551,
                -2.35825777053833
            ]
        }
    ],
    "materials" : [
        {
            "doubleSided" : true,
            "emissiveFactor" : [
                0,
                0,
                0
            ],
            "name" : "Material.002",
            "pbrMetallicRoughness" : {
                "baseColorFactor" : [
                    0,
                    0,
                    0,
                    1
                ],
                "metallicFactor" : 0,
                "roughnessFactor" : 0.5
            }
        },
        {
            "doubleSided" : true,
            "emissiveFactor" : [
                0,
                0,
                0
            ],
            "name" : "Material.003",
            "pbrMetallicRoughness" : {
                "baseColorFactor" : [
                    1,
                    1,
                    1,
                    1
                ],
                "metallicFactor" : 0,
                "roughnessFactor" : 1
            }
        },
        {
            "doubleSided" : true,
            "emissiveFactor" : [
                0,
                0,
                0
            ],
            "name" : "Front Bottom",
            "pbrMetallicRoughness" : {
                "baseColorFactor" : [
                    0.013947981409728527,
                    0.04469342529773712,
                    0.16264207661151886,
                    1
                ],
                "metallicFactor" : 0,
                "roughnessFactor" : 1
            }
        },
        {
            "doubleSided" : true,
            "emissiveFactor" : [
                0,
                0,
                0
            ],
            "name" : "Material.004",
            "pbrMetallicRoughness" : {
                "baseColorFactor" : [
                    0.334323912858963,
                    0.334323912858963,
                    0.334323912858963,
                    1
                ],
                "metallicFactor" : 0,
                "roughnessFactor" : 0.5
            }
        },
        {
            "doubleSided" : true,
            "emissiveFactor" : [
                0,
                0,
                0
            ],
            "name" : "Gun Tip",
            "pbrMetallicRoughness" : {
                "baseColorFactor" : [
                    0.8000000715255737,
                    0.16754797101020813,
                    0.03645582124590874,
                    1
                ],
                "metallicFactor" : 0,
                "roughnessFactor" : 0.5
            }
        },
        {
            "doubleSided" : true,
            "emissiveFactor" : [
                0,
                0,
                0
            ],
            "name" : "Front",
            "pbrMetallicRoughness" : {
                "baseColorFactor" : [
                    1,
                    0,
                    0.0008398535428568721,
                    1
                ],
                "metallicFactor" : 0,
                "roughnessFactor" : 1
            }
        },
        {
            "doubleSided" : true,
            "emissiveFactor" : [
                0,
                0,
                0
            ],
            "name" : "Material.005",
            "pbrMetallicRoughness" : {
                "baseColorFactor" : [
                    0,
                    0.8000000715255737,
                    0.733660101890564,
                    1
                ],
                "metallicFactor" : 0,
                "roughnessFactor" : 0.5
            }
        }
    ],
    "meshes" : [
        {
            "name" : "Cube.001",
            "primitives" : [
                {
                    "attributes" : {
                        "POSITION" : 0,
                        "NORMAL" : 1,
                        "TEXCOORD_0" : 2
                    },
                    "indices" : 3,
                    "material" : 0
                },
                {
                    "attributes" : {
                        "POSITION" : 4,
                        "NORMAL" : 5,
                        "TEXCOORD_0" : 6
                    },
                    "indices" : 7,
                    "material" : 1
                },
                {
                    "attributes" : {
                        "POSITION" : 8,
                        "NORMAL" : 9,
                        "TEXCOORD_0" : 10
                    },
                    "indices" : 11,
                    "material" : 2
                },
                {
                    "attributes" : {
                        "POSITION" : 12,
                        "NORMAL" : 13,
                        "TEXCOORD_0" : 14
                    },
                    "indices" : 15,
                    "material" : 3
                },
                {
                    "attributes" : {
                        "POSITION" : 16,
                        "NORMAL" : 17,
                        "TEXCOORD_0" : 18
                    },
                    "indices" : 19,
                    "material" : 4
                },
                {
                    "attributes" : {
                        "POSITION" : 20,
                        "NORMAL" : 21,
                        "TEXCOORD_0" : 22
                    },
                    "indices" : 23,
                    "material" : 5
                },
                {
                    "attributes" : {
                        "POSITION" : 24,
                        "NORMAL" : 25,
                        "TEXCOORD_0" : 26
                    },
                    "indices" : 27,
                    "material" : 6
                }
            ]
        }
    ],
    "accessors" : [
        {
            "bufferView" : 0,
            "componentType" : 5126,
            "count" : 150,
            "max" : [
                8.249151229858398,
                2.996401309967041,
                6.0486979484558105
            ],
            "min" : [
                -6.436212539672852,
                -1.0010305643081665,
                -6.0486979484558105
            ],
            "type" : "VEC3"
        },
        {
            "bufferView" : 1,
            "componentType" : 5126,
            "count" : 150,
            "type" : "VEC3"
        },
        {
            "bufferView" : 2,
            "componentType" : 5126,
            "count" : 150,
            "type" : "VEC2"
        },
        {
            "bufferView" : 3,
            "componentType" : 5123,
            "count" : 234,
            "type" : "SCALAR"
        },
        {
            "bufferView" : 4,
            "componentType" : 5126,
            "count" : 192,
            "max" : [
                8.249151229858398,
                2.996401309967041,
                6.0486979484558105
            ],
            "min" : [
                -6.436212539672852,
                -1.0010305643081665,
                -6.0486979484558105
            ],
            "type" : "VEC3"
        },
        {
            "bufferView" : 5,
            "componentType" : 5126,
            "count" : 192,
            "type" : "VEC3"
        },
        {
            "bufferView" : 6,
            "componentType" : 5126,
            "count" : 192,
            "type" : "VEC2"
        },
        {
            "bufferView" : 7,
            "componentType" : 5123,
            "count" : 324,
            "type" : "SCALAR"
        },
        {
            "bufferView" : 8,
            "componentType" : 5126,
            "count" : 126,
            "max" : [
                7.998355865478516,
                1.061913251876831,
                8.040449142456055
            ],
            "min" : [
                -5.081441879272461,
                -1,
                -8.040449142456055
            ],
            "type" : "VEC3"
        },
        {
            "bufferView" : 9,
            "componentType" : 5126,
            "count" : 126,
            "type" : "VEC3"
        },
        {
            "bufferView" : 10,
            "componentType" : 5126,
            "count" : 126,
            "type" : "VEC2"
        },
        {
            "bufferView" : 11,
            "componentType" : 5123,
            "count" : 186,
            "type" : "SCALAR"
        },
        {
            "bufferView" : 12,
            "componentType" : 5126,
            "count" : 88,
            "max" : [
                8.249151229858398,
                2.6029088497161865,
                2.5175061225891113
            ],
            "min" : [
                -6.021520137786865,
                -1.0010305643081665,
                -2.5175061225891113
            ],
            "type" : "VEC3"
        },
        {
            "bufferView" : 13,
            "componentType" : 5126,
            "count" : 88,
            "type" : "VEC3"
        },
        {
            "bufferView" : 14,
            "componentType" : 5126,
            "count" : 88,
            "type" : "VEC2"
        },
        {
            "bufferView" : 15,
            "componentType" : 5123,
            "count" : 132,
            "type" : "SCALAR"
        },
        {
            "bufferView" : 16,
            "componentType" : 5126,
            "count" : 168,
            "max" : [
                6.802425384521484,
                2.603569507598877,
                10.139546394348145
            ],
            "min" : [
                -4.281664848327637,
                -0.8841025829315186,
                -10.139546394348145
            ],
            "type" : "VEC3"
        },
        {
            "bufferView" : 17,
            "componentType" : 5126,
            "count" : 168,
            "type" : "VEC3"
        },
        {
            "bufferView" : 18,
            "componentType" : 5126,
            "count" : 168,
            "type" : "VEC2"
        },
        {
            "bufferView" : 19,
            "componentType" : 5123,
            "count" : 252,
            "type" : "SCALAR"
        },
        {
            "bufferView" : 20,
            "componentType" : 5126,
            "count" : 80,
            "max" : [
                6.227102756500244,
                1.299343228340149,
                8.461644172668457
            ],
            "min" : [
                -4.144254684448242,
                -1,
                -8.461644172668457
            ],
            "type" : "VEC3"
        },
        {
            "bufferView" : 21,
            "componentType" : 5126,
            "count" : 80,
            "type" : "VEC3"
        },
        {
            "bufferView" : 22,
            "componentType" : 5126,
            "count" : 80,
            "type" : "VEC2"
        },
        {
            "bufferView" : 23,
            "componentType" : 5123,
            "count" : 120,
            "type" : "SCALAR"
        },
        {
            "bufferView" : 24,
            "componentType" : 5126,
            "count" : 8,
            "max" : [
                -6.021520137786865,
                0.3822578191757202,
                1.892673134803772
            ],
            "min" : [
                -6.021520137786865,
                -0.6271315813064575,
                -1.892673134803772
            ],
            "type" : "VEC3"
        },
        {
            "bufferView" : 25,
            "componentType" : 5126,
            "count" : 8,
            "type" : "VEC3"
        },
        {
            "bufferView" : 26,
            "componentType" : 5126,
            "count" : 8,
            "type" : "VEC2"
        },
        {
            "bufferView" : 27,
            "componentType" : 5123,
            "count" : 12,
            "type" : "SCALAR"
        }
    ],
    "bufferViews" : [
        {
            "buffer" : 0,
            "byteLength" : 1800,
            "byteOffset" : 0
        },
        {
            "buffer" : 0,
            "byteLength" : 1800,
            "byteOffset" : 1800
        },
        {
            "buffer" : 0,
            "byteLength" : 1200,
            "byteOffset" : 3600
        },
        {
            "buffer" : 0,
            "byteLength" : 468,
            "byteOffset" : 4800
        },
        {
            "buffer" : 0,
            "byteLength" : 2304,
            "byteOffset" : 5268
        },
        {
            "buffer" : 0,
            "byteLength" : 2304,
            "byteOffset" : 7572
        },
        {
            "buffer" : 0,
            "byteLength" : 1536,
            "byteOffset" : 9876
        },
        {
            "buffer" : 0,
            "byteLength" : 648,
            "byteOffset" : 11412
        },
        {
            "buffer" : 0,
            "byteLength" : 1512,
            "byteOffset" : 12060
        },
        {
            "buffer" : 0,
            "byteLength" : 1512,
            "byteOffset" : 13572
        },
        {
            "buffer" : 0,
            "byteLength" : 1008,
            "byteOffset" : 15084
        },
        {
            "buffer" : 0,
            "byteLength" : 372,
            "byteOffset" : 16092
        },
        {
            "buffer" : 0,
            "byteLength" : 1056,
            "byteOffset" : 16464
        },
        {
            "buffer" : 0,
            "byteLength" : 1056,
            "byteOffset" : 17520
        },
        {
            "buffer" : 0,
            "byteLength" : 704,
            "byteOffset" : 18576
        },
        {
            "buffer" : 0,
            "byteLength" : 264,
            "byteOffset" : 19280
        },
        {
            "buffer" : 0,
            "byteLength" : 2016,
            "byteOffset" : 19544
        },
        {
            "buffer" : 0,
            "byteLength" : 2016,
            "byteOffset" : 21560
        },
        {
            "buffer" : 0,
            "byteLength" : 1344,
            "byteOffset" : 23576
        },
        {
            "buffer" : 0,
            "byteLength" : 504,
            "byteOffset" : 24920
        },
        {
            "buffer" : 0,
            "byteLength" : 960,
            "byteOffset" : 25424
        },
        {
            "buffer" : 0,
            "byteLength" : 960,
            "byteOffset" : 26384
        },
        {
            "buffer" : 0,
            "byteLength" : 640,
            "byteOffset" : 27344
        },
        {
            "buffer" : 0,
            "byteLength" : 240,
            "byteOffset" : 27984
        },
        {
            "buffer" : 0,
            "byteLength" : 96,
            "byteOffset" : 28224
        },
        {
            "buffer" : 0,
            "byteLength" : 96,
            "byteOffset" : 28320
        },
        {
            "buffer" : 0,
            "byteLength" : 64,
            "byteOffset" : 28416
        },
        {
            "buffer" : 0,
            "byteLength" : 24,
            "byteOffset" : 28480
        }
    ],
    "buffers" : [
        {
            "byteLength" : 28504,
            "uri" : "data:application/octet-stream;base64,"
        }
    ]
}
